Coordinates
version=1
nRows=11
nColumns=46
inDegrees=yes

Units are S.I. units (second, meters, Newtons, ...)
Angles are in degrees.

endheader
time	pelvis_tilt	pelvis_list	pelvis_rotation	pelvis_tx	pelvis_ty	pelvis_tz	bb_angle	bb_tx	bb_ty	bb_tz	hip_flexion_r	hip_adduction_r	hip_rotation_r	knee_angle_r	knee_angle_r_beta	ankle_angle_r	subtalar_angle_r	mtp_angle_r	crank_angle_r	hip_flexion_l	hip_adduction_l	hip_rotation_l	knee_angle_l	knee_angle_l_beta	ankle_angle_l	subtalar_angle_l	mtp_angle_l	crank_angle_l	lumbar_extension	lumbar_bending	lumbar_rotation	arm_flex_r	arm_add_r	arm_rot_r	elbow_flex_r	pro_sup_r	wrist_flex_r	wrist_dev_r	arm_flex_l	arm_add_l	arm_rot_l	elbow_flex_l	pro_sup_l	wrist_flex_l	wrist_dev_l
      0.00500000	    -27.08638498	      3.52704453	      4.64602300	      0.10788535	      1.06034334	     -0.25692762	      0.00000000	      0.50000000	      0.00000000	      0.25000000	     58.79254675	    -11.07224209	     -2.11808106	     66.38417834	      1.15862248	     18.88809100	     -8.24012289	      0.00000000	      0.00000000	     95.53079681	      0.73841527	     -2.31579023	     88.01372175	      1.53612923	     23.84226487	     -6.88057912	      0.00000000	      0.00000000	    -41.97501117	     -1.40912071	     -3.14517920	     89.74865506	     -2.89742020	     43.93399295	     20.49312364	     24.01457771	      0.00000000	      0.00000000	     89.64396489	      6.84997054	     80.79592541	     64.75782373	     48.13629463	      0.00000000	      0.00000000
      0.01000000	    -27.08806206	      3.51086728	      4.64921713	      0.10789471	      1.06032370	     -0.25693283	      0.00000000	      0.50000000	      0.00000000	      0.25000000	     58.79488901	    -11.05842917	     -2.12636957	     66.39021787	      1.15872789	     18.85934067	     -8.31053859	      0.00000000	      0.00000000	     95.53902418	      0.73781297	     -2.30092235	     88.01587268	      1.53616677	     23.83275592	     -6.84843940	      0.00000000	      0.00000000	    -41.97447297	     -1.40030220	     -3.14165930	     89.74916928	     -2.90787760	     43.94973670	     20.37662371	     24.61692528	      0.00000000	      0.00000000	     89.64451320	      6.86121503	     80.78613017	     66.75309764	     47.16914797	      0.00000000	      0.00000000
      0.01500000	    -27.09137750	      3.50830546	      4.64743705	      0.10790604	      1.06031684	     -0.25693759	      0.00000000	      0.50000000	      0.00000000	      0.25000000	     58.80019804	    -11.05740549	     -2.12694677	     66.39643918	      1.15883648	     18.88011491	     -8.28167119	      0.00000000	      0.00000000	     95.54793682	      0.73394616	     -2.30341933	     88.01532560	      1.53615722	     23.80593213	     -6.87318935	      0.00000000	      0.00000000	    -41.96238621	     -1.40565247	     -3.11486030	     89.75024065	     -2.97670255	     44.28317657	     20.37380602	     24.33822063	      0.00000000	      0.00000000	     89.64444850	      6.91545094	     80.65158432	     67.68005385	     46.63783408	      0.00000000	      0.00000000
      0.02000000	    -26.97053878	      3.67041348	      4.60016008	      0.10822351	      1.06063021	     -0.25705575	      0.00000000	      0.50000000	      0.00000000	      0.25000000	     58.69857900	    -11.16513370	     -1.99451489	     66.44243983	      1.15963934	     18.84420131	     -8.19560074	      0.00000000	      0.00000000	     95.37581119	      0.66235459	     -2.56549743	     88.00963853	      1.53605797	     23.71554547	     -7.02999959	      0.00000000	      0.00000000	    -42.14855267	     -1.52376047	     -3.35235033	     89.74877842	     -2.37284017	     42.05905018	     20.26888021	     24.89683589	      0.00000000	      0.00000000	     89.64620164	      6.78304717	     79.24369169	     68.14268673	     46.42803652	      0.00000000	      0.00000000
      0.02500000	    -26.90039111	      3.71596325	      4.62961713	      0.10823417	      1.06077853	     -0.25701913	      0.00000000	      0.50000000	      0.00000000	      0.25000000	     58.63356908	    -11.22302121	     -1.99443826	     66.47119698	      1.16014125	     18.88124741	     -8.18174138	      0.00000000	      0.00000000	     95.30158122	      0.74125658	     -2.52704115	     88.01579439	      1.53616541	     23.68363723	     -7.21417095	      0.00000000	      0.00000000	    -42.26188316	     -1.49957012	     -3.36839459	     89.74572886	     -2.44814445	     41.83280969	     20.86668335	     23.57012800	      0.00000000	      0.00000000	     89.64546139	      6.58457894	     81.44788427	     69.26246199	     45.88230061	      0.00000000	      0.00000000
      0.03000000	    -26.90255252	      3.70386779	      4.63635279	      0.10821645	      1.06080595	     -0.25703274	      0.00000000	      0.50000000	      0.00000000	      0.25000000	     58.63903009	    -11.21432516	     -1.99686232	     66.47872299	      1.16027260	     18.86184386	     -8.22122412	      0.00000000	      0.00000000	     95.31950277	      0.73039522	     -2.53001494	     87.94435372	      1.53491853	     23.74410194	     -7.00477753	      0.00000000	      0.00000000	    -42.26058223	     -1.50646779	     -3.31266653	     89.74552528	     -2.57784935	     41.95591437	     20.61235308	     25.09074294	      0.00000000	      0.00000000	     89.64526919	      6.69981559	     81.40215280	     70.28266971	     45.55455200	      0.00000000	      0.00000000
      0.03500000	    -26.85685206	      3.70230449	      4.70419218	      0.10820320	      1.06093527	     -0.25706347	      0.00000000	      0.50000000	      0.00000000	      0.25000000	     58.57312725	    -11.27106296	     -2.04154672	     66.47821677	      1.16026376	     18.91967182	     -8.18310270	      0.00000000	      0.00000000	     95.27602257	      0.81419193	     -2.50615470	     87.93081795	      1.53468229	     23.70951518	     -7.00824962	      0.00000000	      0.00000000	    -42.31322100	     -1.43962884	     -3.46738797	     89.74709516	     -2.38420659	     41.79322764	     20.65949587	     24.34992312	      0.00000000	      0.00000000	     89.64738808	      6.48929992	     80.57778082	     70.59509811	     45.46868621	      0.00000000	      0.00000000
      0.04000000	    -26.87507474	      3.65876564	      4.67035207	      0.10813616	      1.06085136	     -0.25700943	      0.00000000	      0.50000000	      0.00000000	      0.25000000	     58.60785833	    -11.19688934	     -2.03535295	     66.49316700	      1.16052469	     18.88461747	     -8.23325085	      0.00000000	      0.00000000	     95.33412929	      0.76752334	     -2.47117992	     87.95171720	      1.53504705	     23.63408876	     -7.02806954	      0.00000000	      0.00000000	    -42.30189925	     -1.44149473	     -3.35900491	     89.74465818	     -2.41342264	     41.43466213	     21.21538075	     22.34983893	      0.00000000	      0.00000000	     89.64639121	      6.64357199	     81.47416840	     71.44963866	     45.25713130	      0.00000000	      0.00000000
      0.04500000	    -26.86091051	      3.70528425	      4.66515971	      0.10822564	      1.06089030	     -0.25695110	      0.00000000	      0.50000000	      0.00000000	      0.25000000	     58.60320166	    -11.22690761	     -2.00565342	     66.51428767	      1.16089332	     18.87547377	     -8.21236724	      0.00000000	      0.00000000	     95.29688042	      0.80205912	     -2.45989722	     87.94595051	      1.53494640	     23.65889596	     -7.02309954	      0.00000000	      0.00000000	    -42.30069334	     -1.49197780	     -3.40380561	     89.74887212	     -2.43920757	     42.25876606	     20.83479073	     22.76065740	      0.00000000	      0.00000000	     89.64669561	      6.61314854	     80.76343824	     71.79570190	     45.21032744	      0.00000000	      0.00000000
      0.05000000	    -26.88975440	      3.68976129	      4.66807753	      0.10823412	      1.06089619	     -0.25690763	      0.00000000	      0.50000000	      0.00000000	      0.25000000	     58.62499380	    -11.20440309	     -2.00414527	     66.50103860	      1.16066208	     18.85690221	     -8.26485402	      0.00000000	      0.00000000	     95.33767768	      0.81716150	     -2.42320099	     87.94270058	      1.53488968	     23.55207446	     -7.10378037	      0.00000000	      0.00000000	    -42.25278036	     -1.52218281	     -3.30316886	     89.75153006	     -2.83455803	     43.82542428	     20.51179514	     24.09505953	      0.00000000	      0.00000000	     89.64601709	      6.84160341	     80.64276272	     72.10921882	     45.15309974	      0.00000000	      0.00000000
      0.05500000	    -26.87261220	      3.70359918	      4.68002541	      0.10820546	      1.06090557	     -0.25692792	      0.00000000	      0.50000000	      0.00000000	      0.25000000	     58.61983005	    -11.22579456	     -2.00172407	     66.52303349	      1.16104596	     18.88592107	     -8.26383709	      0.00000000	      0.00000000	     95.33555252	      0.83039587	     -2.43359093	     87.94889551	      1.53499780	     23.51701933	     -7.05298340	      0.00000000	      0.00000000	    -42.29939590	     -1.51089475	     -3.37402597	     89.74700022	     -2.54326176	     41.93653015	     20.48768451	     25.84671028	      0.00000000	      0.00000000	     89.64611180	      6.71134006	     81.36185237	     72.70150726	     45.08891061	      0.00000000	      0.00000000
